<svg width="960" height="660" viewBox="0 0 960 660" fill="none" xmlns="http://www.w3.org/2000/svg">
  <rect width="960" height="660" rx="38" fill="#FFF9EF"/>
  <rect x="36" y="36" width="888" height="588" rx="30" fill="#F6ECDD" stroke="#DECDB7" stroke-width="3"/>
  <rect x="66" y="70" width="828" height="72" rx="20" fill="#2F4C2E"/>
  <circle cx="104" cy="106" r="18" fill="#F2C6A4"/>
  <rect x="142" y="92" width="172" height="18" rx="9" fill="#FFF9EF"/>
  <rect x="684" y="91" width="166" height="30" rx="15" fill="#B64A2D"/>
  <rect x="66" y="174" width="286" height="386" rx="28" fill="#FFFFFF" stroke="#DECDB7" stroke-width="3"/>
  <rect x="386" y="174" width="508" height="174" rx="28" fill="#FFFFFF" stroke="#DECDB7" stroke-width="3"/>
  <rect x="386" y="386" width="236" height="174" rx="28" fill="#FFFFFF" stroke="#DECDB7" stroke-width="3"/>
  <rect x="658" y="386" width="236" height="174" rx="28" fill="#FFFFFF" stroke="#DECDB7" stroke-width="3"/>
  <rect x="96" y="206" width="226" height="128" rx="22" fill="#E7EFE0"/>
  <path d="M128 291C151 246 179 232 214 247C248 261 269 245 296 218V306H128V291Z" fill="#8FB06F"/>
  <circle cx="164" cy="238" r="18" fill="#E8A05B"/>
  <rect x="96" y="368" width="162" height="18" rx="9" fill="#2F4C2E"/>
  <rect x="96" y="406" width="214" height="14" rx="7" fill="#BCA98F"/>
  <rect x="96" y="438" width="184" height="14" rx="7" fill="#BCA98F"/>
  <rect x="96" y="470" width="204" height="14" rx="7" fill="#BCA98F"/>
  <rect x="426" y="210" width="202" height="20" rx="10" fill="#2F4C2E"/>
  <rect x="426" y="254" width="400" height="16" rx="8" fill="#BCA98F"/>
  <rect x="426" y="290" width="318" height="16" rx="8" fill="#BCA98F"/>
  <rect x="426" y="424" width="86" height="86" rx="20" fill="#F2C6A4"/>
  <path d="M447 477L468 435L491 477H447Z" fill="#B64A2D"/>
  <rect x="536" y="430" width="54" height="14" rx="7" fill="#2F4C2E"/>
  <rect x="536" y="462" width="42" height="14" rx="7" fill="#BCA98F"/>
  <rect x="702" y="424" width="148" height="18" rx="9" fill="#2F4C2E"/>
  <rect x="702" y="462" width="112" height="14" rx="7" fill="#BCA98F"/>
  <rect x="702" y="494" width="132" height="14" rx="7" fill="#BCA98F"/>
</svg>
